<svg xmlns="http://www.w3.org/2000/svg" viewBox="0 0 917.68 137.2"><defs><style>.a{fill:#93278f;}</style></defs><title>coaster-track</title><path class="a" d="M60.78,240.91c-18.38,5.58-31.62,24.94-21.34,43.49,5.37,9.7,17.22,12.22,27.37,13.46a144.58,144.58,0,0,0,40.33-1.17c29.24-4.87,57.5-13.26,85.8-21.84,28.83-8.74,57.73-17.28,86.89-24.86,27.82-7.23,57.49-16,86.21-8.54,27.77,7.25,46.12,31.64,71,44.64,10.24,5.35,20.31,8.77,31.91,7.19,9.3-1.27,18.54-4.21,25.67-10.47,18.4-16.16,29.6-39.35,41.5-60.29,11.55-20.32,25.7-45.71,48.48-55,26.48-10.81,53,10,69.76,28.69,8.76,9.79,16,20.8,24.28,31,9,11.14,16.78,23.42,26.54,33.92,15.62,16.8,35.38,27.22,58.78,23.17,15.93-2.76,31.64-8.38,47.2-12.67,21.36-5.89,42.79-11.55,64.42-16.36,10.78-2.4,21.6-4.59,32.51-6.32,8-1.27,17.09-3.35,25.24-2.48,4.62.49,10.56,1.59,14,5,5.6,5.59,3.2,16.32-1.33,21.8-4.92,6-11.72,7.19-19,7.77a157.69,157.69,0,0,1-23.66.07c-28.21-2-56.78-9.54-83.15-19.6-13.69-5.22-28-10.79-40.49-18.45-10.67-6.52-20.31-14.91-31.83-20-10.28-4.52-21.47-5.39-31.82-.56-11.5,5.36-18.15,16.81-27.73,24.65-5.69,4.65-12.71,8.17-19.15,11.67a230.84,230.84,0,0,1-22,10.74,151.61,151.61,0,0,1-43.71,10.88,140.12,140.12,0,0,1-43.06-2.62l-.4,2.95,1.49.14c1.7.16,2-2.55.4-2.95-11.72-2.89-23.8-5.82-34.15-12.3S509.88,249,502.2,239.58c-15-18.33-29.33-40.55-51.51-50.94C431.6,179.7,413,199,402.21,212.56c-14.64,18.28-22.76,40.86-40.28,57-14.46,13.29-35.08,15.75-53.92,14.72a203,203,0,0,1-48.13-8.37c-12.79-4-23.57-11.36-35.3-17.56A195.19,195.19,0,0,0,186.35,243c-40.3-11.32-85.13-13.63-125.57-2.11a1.5,1.5,0,0,0,.8,2.89c38.71-11,81-9,119.76,1A194.39,194.39,0,0,1,218,258.33c11.41,5.56,21.82,13.06,33.62,17.8,13.83,5.56,29.17,8.08,43.91,10,17,2.18,35.28,2.52,51.5-3.88,19.2-7.57,31.49-25.69,41.44-42.91,5.74-9.93,11.47-19.75,19.06-28.42,7.24-8.27,16.73-18.18,27.75-20.95,13.11-3.29,26.56,8.14,35.33,16.68,10.39,10.12,19,22.35,28.23,33.55,8.25,10.06,16.14,21.11,27.36,28.09,10.59,6.59,22.88,9.65,34.86,12.6l.4-2.95-1.49-.14c-1.68-.16-2,2.59-.4,2.95A148.54,148.54,0,0,0,643,274.38c13.39-5,26.22-11.78,38.43-19.17A72.85,72.85,0,0,0,697,242.78c4.11-4.29,8.24-9.1,12.81-12.87,25.48-21,50.42,6,72.25,18,24.08,13.24,51.18,22.61,77.86,28.85,14,3.27,28.13,6.17,42.49,7.26a158.51,158.51,0,0,0,22.67.13c5.88-.4,11.88-.78,17.1-3.8,8.28-4.79,13.38-15.93,10.57-25.28-2.53-8.43-11.91-10.94-19.76-11.65s-16.22,1.17-23.87,2.34c-10.84,1.66-21.6,3.81-32.31,6.16-22.12,4.85-44,10.63-65.85,16.65-15.52,4.28-31.11,9.73-47,12.67-28.06,5.22-49.72-11.91-65.7-33.13-8.78-11.66-17.85-23.09-26.6-34.76-7.47-10-14.94-19.9-24.2-28.32-17.1-15.54-40-29.92-63.7-20.41-20.9,8.4-34.86,30.08-45.82,48.67-12.76,21.63-23.54,45.62-41.47,63.63-8.64,8.68-19.35,13-31.57,13.79-13.18.9-25.73-6.18-36.47-13.12-11.84-7.65-22.35-17-33.6-25.44a81.48,81.48,0,0,0-35.73-15.2c-27.67-4.54-55.38,3.69-81.92,10.63-29.46,7.7-58.64,16.37-87.77,25.21-13.31,4-26.56,8.13-40,11.71-7.81,2.08-15.67,4-23.61,5.54-7.65,1.48-15.44,3.5-23.19,4.26-14,1.39-28.5,2.42-42.41-.51C53.57,292.37,46.51,290,42.66,284c-3.47-5.42-4.95-13.19-3.19-19.39,2.93-10.32,12.17-17.75,22.1-20.77C63.42,243.25,62.63,240.35,60.78,240.91Z" transform="translate(-35.85 -161.57)"/></svg>