<svg xmlns="http://www.w3.org/2000/svg" viewBox="0 0 937.2 139.42"><defs><style>.a{fill:#f76d21;}</style></defs><title>coaster-track</title><path class="a" d="M67.69,299.46c-28.73,0-42.69-9.8-42.69-30,0-21.93,34.18-37.85,81.26-37.85,22.91,0,58.7,3.75,99.06,21.61l5.92,2.63c4.28,1.9,8.58,3.81,12.89,5.7C274.54,246.41,312,235.69,335,235.69c16.45,0,30.7,2.9,43.53,8.86,20.95-33.14,37.59-59.19,59.47-59.19,16.44,0,34.39,14.92,56.51,47a122.18,122.18,0,0,0,19.72,22.38c5.21-8.1,10.35-17.05,15.32-25.73,19.42-33.89,39.5-68.94,72-68.94,33,0,58.66,33.61,83.45,66.11,3.88,5.09,7.89,10.34,11.83,15.32l.28-.28c16.27-16.27,26.92-22.6,38-22.6,11.76,0,23.86,7.11,42.09,20.23,11.05,8,32.62,17.7,57.74,26.1l.84-.24c36.67-10.52,74.59-21.39,99.19-21.39,18.07,0,27.24,6.16,27.24,18.31,0,15.11-13.49,23.09-39,23.09-22.78,0-54.95-6.36-88.3-17.44-31.22,9-63.45,18.17-82,18.17-19.62,0-36.72-16.22-56.24-40.66-20.75,19.07-65.08,39-107.78,39-28.85,0-53.77-8.65-74.1-25.73-11.87,18-26.86,36.14-48.12,36.14-26.86,0-41.71-12.53-57.44-25.79-8.87-7.48-18-15.2-29.8-21l-3.75,5.92c-15.3,24.1-36,35.82-63.16,35.82-28.33,0-60.49-13-88.47-25.2l-4.56,1.37C163.68,282.1,106,299.46,67.69,299.46Zm38.57-65.59c-45.8,0-79,15-79,35.63,0,18.67,13.24,27.74,40.47,27.74,38,0,95.5-17.31,151.1-34l2.06-.62h0l-10.51-4.65-5.92-2.63C164.42,237.58,129,233.86,106.26,233.86Zm274.3,11.66c11.91,5.9,21.12,13.66,30,21.18,15.41,13,30,25.26,56,25.26,20.29,0,34.85-17.74,46.42-35.37a124.28,124.28,0,0,1-20.33-23c-21.67-31.39-39-46-54.68-46-20.61,0-36.94,25.47-57.45,57.92ZM227.29,262.95c27.2,11.82,58.08,24,85.18,24,26.38,0,46.43-11.38,61.28-34.79l3.6-5.69c-12.46-5.74-26.32-8.53-42.33-8.53C311.08,237.91,266.92,251,227.29,262.95Zm470.95-19.72c16.65,20.87,34.78,40,54.62,40,17.66,0,48.23-8.58,78.32-17.2-24-8.22-44.51-17.62-55.28-25.37-17.43-12.55-29.69-19.81-40.79-19.81-10.41,0-20.62,6.15-36.42,22Zm140.46,22.93c32,10.38,62.65,16.31,84.5,16.31,24.41,0,36.79-7,36.79-20.87,0-10.82-8.18-16.09-25-16.09C911.19,245.52,874.49,255.9,838.69,266.16ZM516,256.17c20,16.84,44.47,25.38,72.88,25.38,47.21,0,89.85-23.34,106.39-38.54-4-5-8-10.36-12-15.51-24.46-32.07-49.76-65.24-81.68-65.24-31.21,0-51,34.48-70.07,67.82C526.46,238.88,521.26,248,516,256.17Z" transform="translate(-25 -160.04)"/></svg>